<?xml version="1.0" encoding="UTF-8" standalone="no"?>
<!DOCTYPE svg PUBLIC "-//W3C//DTD SVG 1.1//EN" "http://www.w3.org/Graphics/SVG/1.1/DTD/svg11.dtd">
<svg version="1.1" xmlns="http://www.w3.org/2000/svg" xmlns:xlink="http://www.w3.org/1999/xlink" preserveAspectRatio="xMidYMid meet" viewBox="0 0 410 210" width="410" height="210"><defs><path d="M43.67 55.69C43.67 67.19 34.33 76.52 22.83 76.52C11.34 76.52 2 67.19 2 55.69C2 44.19 11.34 34.86 22.83 34.86C34.33 34.86 43.67 44.19 43.67 55.69Z" id="b277vFfmy"></path><path d="M223.19 103.07C223.19 114.57 213.86 123.9 202.36 123.9C190.86 123.9 181.52 114.57 181.52 103.07C181.52 91.57 190.86 82.24 202.36 82.24C213.86 82.24 223.19 91.57 223.19 103.07Z" id="cj398D5qE"></path><path d="M120.57 159.98C120.57 171.47 111.24 180.81 99.74 180.81C88.24 180.81 78.9 171.47 78.9 159.98C78.9 148.48 88.24 139.14 99.74 139.14C111.24 139.14 120.57 148.48 120.57 159.98Z" id="c4yRhg8JU"></path><path d="M400.1 22.83C400.1 34.33 390.76 43.67 379.26 43.67C367.76 43.67 358.43 34.33 358.43 22.83C358.43 11.34 367.76 2 379.26 2C390.76 2 400.1 11.34 400.1 22.83Z" id="c29dmysD1"></path><path d="M332.24 159.5C332.24 171 322.9 180.33 311.4 180.33C299.91 180.33 290.57 171 290.57 159.5C290.57 148 299.91 138.67 311.4 138.67C322.9 138.67 332.24 148 332.24 159.5Z" id="b19JAs2dK"></path><path d="M202.36 103.07L99.74 159.5L22.83 55.69L202.36 103.07Z" id="at67GoKvH"></path><path d="M99.74 159.5L311.4 159.5L379.26 22.83L202.36 103.07" id="g1cEcv9AEw"></path><path d="M379.26 22.83L22.83 55.69" id="h8gamSAfwm"></path><path d="" id="e3vGYwVTRE"></path></defs><g><g><g><use xlink:href="#b277vFfmy" opacity="1" fill="#1a82c0" fill-opacity="1"></use><g><use xlink:href="#b277vFfmy" opacity="1" fill-opacity="0" stroke="#10345c" stroke-width="2" stroke-opacity="1"></use></g></g><g><use xlink:href="#cj398D5qE" opacity="1" fill="#1a82c0" fill-opacity="1"></use><g><use xlink:href="#cj398D5qE" opacity="1" fill-opacity="0" stroke="#10345c" stroke-width="2" stroke-opacity="1"></use></g></g><g><use xlink:href="#c4yRhg8JU" opacity="1" fill="#1a82c0" fill-opacity="1"></use><g><use xlink:href="#c4yRhg8JU" opacity="1" fill-opacity="0" stroke="#10345c" stroke-width="2" stroke-opacity="1"></use></g></g><g><use xlink:href="#c29dmysD1" opacity="1" fill="#1a82c0" fill-opacity="1"></use><g><use xlink:href="#c29dmysD1" opacity="1" fill-opacity="0" stroke="#10345c" stroke-width="2" stroke-opacity="1"></use></g></g><g><use xlink:href="#b19JAs2dK" opacity="1" fill="#1a82c0" fill-opacity="1"></use><g><use xlink:href="#b19JAs2dK" opacity="1" fill-opacity="0" stroke="#10345c" stroke-width="2" stroke-opacity="1"></use></g></g><g><g><use xlink:href="#at67GoKvH" opacity="1" fill-opacity="0" stroke="#010105" stroke-width="1" stroke-opacity="1"></use></g></g><g><g><use xlink:href="#g1cEcv9AEw" opacity="1" fill-opacity="0" stroke="#010105" stroke-width="1" stroke-opacity="1"></use></g></g><g><g><use xlink:href="#h8gamSAfwm" opacity="1" fill-opacity="0" stroke="#010105" stroke-width="1" stroke-opacity="1"></use></g></g><g><g><use xlink:href="#e3vGYwVTRE" opacity="1" fill-opacity="0" stroke="#010105" stroke-width="1" stroke-opacity="1"></use></g></g></g></g></svg>